<svg xmlns="http://www.w3.org/2000/svg" width="1304" height="577"
    style="shape-rendering:geometricPrecision;text-rendering:geometricPrecision;image-rendering:optimizeQuality;fill-rule:evenodd;clip-rule:evenodd">
    <path style="opacity:.961" fill="#d71f47"
        d="M1287.5-.5h9c2.93 1.3 5.27 3.3 7 6v11c-14.67 14.67-29 29.67-43 45a2.42 2.42 0 0 0-2 .5 352 352 0 0 0-7 8.5 637 637 0 0 1-30 30c-2.64 2.974-5.3 5.974-8 9a408 408 0 0 1-24 24 75.6 75.6 0 0 0-8 9 1744 1744 0 0 1-35 35.5q-15.255 5.129-18-10.5c-.03-2.933.8-5.6 2.5-8a597 597 0 0 0 28.5-29.5c-16.22-7.919-31.89-6.919-47 3-9.81 2.6-15.48-1.066-17-11 .49-3.145 1.66-5.978 3.5-8.5q38.655-25.415 78-1a159 159 0 0 0 14.5-15.5c-23.94-17.492-50.28-22.159-79-14a206 206 0 0 0-15 6c-14.08.033-18.24-6.467-12.5-19.5 12.09-7.475 25.26-11.975 39.5-13.5 31.45-3.511 59.62 4.322 84.5 23.5a470 470 0 0 0 20-21q1.005-1 0-2c-48.46-36.013-100.29-41.513-155.5-16.5-12.69-.197-16.86-6.364-12.5-18.5q8.535-7.392 19.5-10.5c52.21-17.77 101.88-12.436 149 16 6.1 4.137 11.94 8.637 17.5 13.5a781 781 0 0 1 40.5-41" />
    <path style="opacity:.967" fill="#1c1e1b"
        d="M16.5 26.5q49.503-.25 99 .5 28.22 2.99 48.5 22.5 21.841 28.868 16 65-5.724 39.964-43.5 54a14015 14015 0 0 1 54 98.5 213 213 0 0 1-35.5-.5 6079 6079 0 0 1-49.5-92 842 842 0 0 0-58-1v94h-31zm31 26q26.505-.25 53 .5 61.402 3.99 48.5 64.5-11.24 27.692-41.5 28.5-29.995.75-60 .5z" />
    <path style="opacity:.964" fill="#1c1e1b"
        d="M534.5 26.5h29v241h-28q.498-14.035-1-28a162 162 0 0 0-10.5 14q-25.06 24.209-59.5 16.5-36.94-8.846-52.5-43.5-20.024-52.658 3-104 33.114-52.376 92.5-33.5a94 94 0 0 1 11 7 131 131 0 0 1 15 18.5q1.5-43.99 1-88m-55 83q40.015-.225 51.5 38 7 29.5 0 59-15.8 49.026-65.5 35.5-22.62-10.475-29.5-34.5-12.366-41.564 9-79 13.623-16.43 34.5-19" />
    <path style="opacity:.919" fill="#3460aa"
        d="M1260.5 61.5c40.63 51.138 49.47 107.471 26.5 169-28.09 59.309-74.92 91.809-140.5 97.5q-98.145 1.065-148.5-82.5-33.247-64.843-10-134 6.85-19.46 19.5-35.5 10.59-1.907 7.5 8.5-47.906 77.52-5 158c35.09 54.793 85.26 78.959 150.5 72.5q91.425-17.428 121.5-105.5c13.65-51.724 3.48-98.057-30.5-139a352 352 0 0 1 7-8.5 2.42 2.42 0 0 1 2-.5" />
    <path style="opacity:.964" fill="#1c1e1b"
        d="M288.5 83.5q25.458-1.16 48 10.5 22.106 15.94 24.5 43.5.75 64.998.5 130h-29q.25-12.01-.5-24-13.75 24.02-41.5 27.5-30.783 4.748-56-13-25.797-25.448-15.5-60.5 9.83-22.326 33.5-28.5a216 216 0 0 1 22-5 4175 4175 0 0 0 45-6q18.301-3.318 12.5-21.5-4.428-22.928-27.5-26.5-37.422-5.282-57 26.5-13.64-4.083-26-10.5 12.552-29.048 43-38 12.018-3.357 24-4.5m42 95q1.992 7.182 2 15.5 2.012 37.99-34 50-18.8 3.76-37-2-20.067-10.383-15.5-32.5 3.291-8.361 10.5-13.5a76.2 76.2 0 0 1 19-7 3450 3450 0 0 0 41-6q7.616-.892 14-4.5" />
    <path style="opacity:.966" fill="#1c1e1b"
        d="M680.5 83.5q25.458-1.16 48 10.5 22.89 15.508 24.5 43.5.75 64.998.5 130h-29q.25-11.511-.5-23-19.227 28.602-54 27-70.967-3.935-59-74 9.83-22.326 33.5-28.5a531 531 0 0 1 68-11q17.229-4.19 11.5-21.5-4.388-22.887-27.5-26.5-37.351-5.415-56.5 26.5-13.97-3.876-26.5-10.5 12.552-29.048 43-38 12.062-3.09 24-4.5m42 95q1.992 7.182 2 15.5 2.774 38.454-34 50-18.8 3.76-37-2-19.517-9.784-15.5-31.5 2.883-9.038 10.5-14.5a81.3 81.3 0 0 1 19-7 3450 3450 0 0 0 41-6q7.616-.892 14-4.5m148-95h24q.25 15.009-.5 30-31.719-8.966-54 15a43.1 43.1 0 0 0-7 16 7561 7561 0 0 0-.5 123h-29v-181h28q-.25 13.509.5 27 11.668-24.935 38.5-30" />
    <path style="opacity:.92" fill="#3460aa"
        d="M1221.5 100.5c24.79 33.06 29.95 69.06 15.5 108-22.13 46.327-58.97 67.827-110.5 64.5q-65.115-9.933-88.5-71.5c-8.89-28.957-6.56-56.957 7-84q7.74-5.164 10.5 3.5c-19.7 43.102-13.37 81.769 19 116q53.28 43.642 114 11 62.355-44.631 37.5-117.5a142.7 142.7 0 0 0-12.5-21c2.7-3.026 5.36-6.026 8-9" />
    <path style="opacity:.918" fill="#3460aa"
        d="M1189.5 133.5c11.08 18.383 12.91 37.716 5.5 58-14.43 28.635-37.6 40.468-69.5 35.5q-51.96-16.154-46.5-70.5a49 49 0 0 1 4-13c3.33-4 6.67-4 10 0a84.5 84.5 0 0 1-3 18c-1.51 25.143 9.32 42.643 32.5 52.5 26.35 6.889 46.51-1.278 60.5-24.5q11.19-23.881-1.5-47a75.6 75.6 0 0 1 8-9" />
    <path style="opacity:.961" fill="#1c1e1b"
        d="M509.5 316.5q26.005-.25 52 .5a1434 1434 0 0 1-36 53 267 267 0 0 1-40-.5 97400 97400 0 0 1 24-53" />
    <path style="opacity:.981" fill="#1c1e1b"
        d="M115.5 576.5h-32q-36.027-2.591-63.5-26-16.755-19.034-20.5-44v-14h56q3.795 31.044 35 34.5 18.516 2.664 35-6 22.224-18.197-1-35a146 146 0 0 0-15-6 3222 3222 0 0 0-49-12q-29.892-7.55-47.5-32.5-23.802-57.562 27.5-92.5 51.69-25.247 106-6 44.769 19.537 46 68.5-28.005.25-56-.5-5.14-25.126-31-27-17.253-1.898-32 7-15.099 17.6 3 32a91.5 91.5 0 0 0 14 6 2626 2626 0 0 1 49 12q73.193 24.636 50.5 98.5-16.531 30.513-50.5 38.5a307 307 0 0 1-24 4.5m585 0h-11q-47.448-6.672-61.5-53-12.59-46.679 4-92 27.925-53.654 86.5-37.5 19.378 8.877 27.5 28.5.75-44.997.5-90h59v241h-58q.25-14.508-.5-29-14.71 28.475-46.5 32m10-141q23.3-1.234 32.5 20 6.384 19.513 4 40-1.832 18.924-16.5 30.5-23.26 11.495-39.5-8.5-17-34.5 0-69 7.198-10.464 19.5-13m-423 141h-23q-54.355-9.599-47.5-65 4.761-27.263 30.5-37.5a98.5 98.5 0 0 1 21-6 812 812 0 0 0 45-6q15.841-2.927 11.5-18.5-7.21-12.61-22-12-20.408-.065-27 19a819 819 0 0 0-53.5-2q7.425-42.597 49-54.5 36.288-9.514 72 2 34.554 12.387 40.5 48.5.75 64.499.5 129h-55q.25-12.51-.5-25-14.142 23.935-41.5 28m38-84q8.43 39.656-31.5 46-12.019-.167-20-9-7.443-19.868 12.5-27.5a266 266 0 0 1 26-5q7.066-1.126 13-4.5" />
    <path style="opacity:.977" fill="#1c1e1b"
        d="M942.5 576.5h-34q-62.798-10.047-73.5-73-7.823-46.13 19-84 27.843-30.546 69.5-30c48.061 1.09 76.89 25.09 86.5 72a277 277 0 0 1 1.5 36h-120q2.137 39.885 42 36.5 15.795-2.387 23-16.5 26.99-1.365 54 0c-4.48 24.434-18.142 41.601-41 51.5q-13.353 4.959-27 7.5m-25-144q26.241-3.51 37.5 20a24.4 24.4 0 0 1 1.5 10h-65q2.86-23.856 26-30" />
    <path style="opacity:.983" fill="#1c1e1b"
        d="M418.5 392.5h58a2266 2266 0 0 0 1.5 114q9.091 26.425 36.5 19.5 15.613-6.117 19.5-22.5.75-55.497.5-111h59v181h-56q.25-17.007-.5-34-11.883 29.886-43.5 35.5-63.898 6.692-74.5-56.5-.75-62.999-.5-126" />
</svg>