<svg xmlns="http://www.w3.org/2000/svg" width="1481" height="655"
  style="shape-rendering:geometricPrecision;text-rendering:geometricPrecision;image-rendering:optimizeQuality;fill-rule:evenodd;clip-rule:evenodd">
  <path style="opacity:.966" fill="#d82147"
    d="M1462.5-.5h9q5.4 2.89 9 8v10a932 932 0 0 1-50 53q-5.595 4.096-9 10a818 818 0 0 0-34 34q-5.595 4.096-9 10a267.5 267.5 0 0 0-27 28c-4.33 2.333-7.67 5.667-10 10a2163 2163 0 0 1-39 39.5q-23.985 5.508-19.5-18.5a868 868 0 0 1 34.5-35.5c-18.3-9.412-35.97-8.412-53 3q-19.515 4.482-19.5-15.5a15.4 15.4 0 0 1 3-6c23.06-16.202 47.89-19.369 74.5-9.5 4.83 2.246 9.49 4.746 14 7.5 6-5.333 11.67-11 17-17q-36.135-27.404-81-18.5a93.5 93.5 0 0 0-25 9c-15.96.699-21.13-6.467-15.5-21.5q13.02-8.847 28.5-12.5 61.95-14.694 112.5 23.5c8.93-7.908 16.6-16.574 23-26-43.77-33.955-92.6-44.121-146.5-30.5a143 143 0 0 0-28 11c-9.59 2.294-15.76-1.206-18.5-10.5q-.225-13.815 13.5-17.5c72.23-28.294 138.9-18.794 200 28.5a1504 1504 0 0 1 46-46" />
  <path style="opacity:.974" fill="#fefffe"
    d="M20.5 29.5q49.503-.25 99 .5 87.384 3.38 86.5 90.5-2.105 52.068-50.5 70.5a17971 17971 0 0 1 61 111.5 200.6 200.6 0 0 1-40 0l-56-104q-32.985-1.5-66-1v106h-34zm34 31q35.504-.25 71 .5 47.219 5.966 47 53.5-2 48.751-51 51.5-33.496.75-67 .5z" />
  <path style="opacity:.976" fill="#fefffe"
    d="M607.5 29.5h32v274h-31v-31q-1.983-.255-3.5 1-25.074 42.73-74.5 33.5-48.062-10.054-64.5-56.5-12.573-41.461-4-84Q484.458 85.535 567.5 98q18.46 5.458 30.5 20.5 3.9 6.32 8.5 12 1.5-50.49 1-101m-63 95q38.595-1.341 55.5 33 16.186 42.308 1 85-22.984 48.855-74.5 31.5-28.013-16.218-33.5-48.5-8.022-39.321 10-75 14.838-22.615 41.5-26" />
  <path style="opacity:.928" fill="#fefefe"
    d="M1430.5 70.5c34.05 39.136 48.89 84.803 44.5 137-7.53 61.256-37.36 108.089-89.5 140.5-57.5 30.772-115.83 32.439-175 5q-109.11-62.461-97.5-188.5c3.9-28.38 14.07-54.214 30.5-77.5 8.35-2.152 11.52 1.015 9.5 9.5-27.75 42.525-35.42 88.525-23 138q22.425 76.434 94.5 110.5c64.82 25.694 124.48 17.028 179-26q78.03-72.6 52.5-176.5-10.695-34.92-34.5-62 3.405-5.904 9-10" />
  <path style="opacity:.958" fill="#fefffe"
    d="M995.5 94.5q10.485.749 21 1v33q-27.688-6.989-52 7.5-14.705 11.23-18.5 29.5a9518 9518 0 0 0-.5 138h-33v-205h32q-.25 15.508.5 31 15.144-32.189 50.5-35" />
  <path style="opacity:.968" fill="#fefffe"
    d="M322.5 95.5q28.584-2.382 55 8.5 33.592 19.904 33.5 59.5.75 69.998.5 140h-33q.25-13.509-.5-27-16.887 27.849-49.5 31.5-32.796 4.444-60-14-28.618-26.17-20.5-64.5 6.82-25.323 31.5-34.5a165 165 0 0 1 24-7 8201 8201 0 0 1 63-9q7.944-1.464 11.5-8.5 4.547-33.195-26.5-44.5-30.891-6.856-56 12a66.8 66.8 0 0 0-13 17.5 1544 1544 0 0 1-29.5-11q11.03-31.03 42.5-42.5 13.418-4.48 27-6.5m54 107q1.994 7.938 2 17 .374 57.132-57 60-22.257.84-37.5-15-15.863-35.024 20.5-47.5a694 694 0 0 1 55-9q9.186-1.168 17-5.5m391-107q28.585-2.382 55 8.5 33.592 19.904 33.5 59.5.75 69.998.5 140h-33q.25-13.509-.5-27-16.887 27.849-49.5 31.5-32.796 4.444-60-14-28.618-26.17-20.5-64.5 6.82-25.323 31.5-34.5a165 165 0 0 1 24-7 8201 8201 0 0 1 63-9q7.944-1.464 11.5-8.5 4.547-33.195-26.5-44.5-30.891-6.856-56 12a66.8 66.8 0 0 0-13 17.5 1544 1544 0 0 1-29.5-11q11.03-31.03 42.5-42.5 13.418-4.48 27-6.5m54 107q1.994 7.938 2 17 .374 57.132-57 60-22.257.84-37.5-15-15.863-35.024 20.5-47.5a694 694 0 0 1 55-9q9.186-1.168 17-5.5" />
  <path style="opacity:.928" fill="#fefefe"
    d="M1387.5 114.5c27.69 37.36 33.53 78.026 17.5 122q-28.89 62.874-97.5 73.5c-50.58 3.625-89.75-15.541-117.5-57.5q-27.825-50.956-9-106 2.595-6.68 6-13c6.12-3.754 9.95-2.254 11.5 4.5a174.4 174.4 0 0 0-11.5 37.5q-6.27 72.225 55.5 109.5c49.39 22.52 93.22 14.687 131.5-23.5 27.49-33.604 33.82-70.937 19-112-3.84-9.016-8.67-17.349-14.5-25q3.405-5.904 9-10" />
  <path style="opacity:.926" fill="#fefefe"
    d="M1351.5 152.5c16.07 28.849 14.23 56.516-5.5 83-25.67 25.479-54.84 30.312-87.5 14.5-24.64-16.108-35.8-38.941-33.5-68.5a58 58 0 0 1 5.5-19q9.015-5.428 12 4.5c-10.27 28.255-3.61 51.588 20 70 27.78 15.175 52.61 11.341 74.5-11.5q22.035-30.219 4.5-63c2.33-4.333 5.67-7.667 10-10" />
  <path style="opacity:.972" fill="#fefffe"
    d="M578.5 359.5q29.517-.5 59 1a5667 5667 0 0 1-40 59.5q-22.494.75-45 .5a2442 2442 0 0 1 26-61" />
  <path style="opacity:.984" fill="#fefffe"
    d="M130.5 654.5h-33q-36.638-2.63-67-23.5-29.794-26.65-31-66.5v-5h65q3.175 32.93 36 38.5 20.013 3.165 39-4 21.348-11.401 12.5-33.5-10.807-11.784-26.5-15.5a1154 1154 0 0 0-46-11q-28.464-5.985-51-24Q-.733 480.335 9 439.5q11.53-41.037 51.5-56.5 50.658-17.789 102-2 54.716 20.172 57 78.5-32.016.5-64-1-3.847-21.598-25-27.5-24.268-6.194-46 6-13.152 13.03-4.5 29.5 9.234 9.996 22.5 13.5a1180 1180 0 0 1 59 15q84.651 31.059 52.5 115.5-20.452 31.394-57.5 39.5a355 355 0 0 1-26 4.5m663 0h-7q-50.956-4.675-70-52.5-18.62-56.036 1.5-111.5 26.4-54.365 86.5-46.5 31.31 6.807 43.5 36.5.75-51.498.5-103h66v274h-66q.25-17.007-.5-34-16.33 34.777-54.5 37m14-160q26.009-1.72 36.5 22 10.411 30.3 1 61-12.495 30.622-44.5 22.5-15.211-6.635-20.5-22.5-9.356-30.668 1-61 7.72-17.994 26.5-22" />
  <path style="opacity:.983" fill="#fefffe"
    d="M325.5 654.5h-23q-61.922-9.246-55.5-72 5.529-33.539 37.5-45.5a191 191 0 0 1 13-4 2617 2617 0 0 0 61-9q15.577-3.9 11.5-19.5-7.26-15.795-25-15-16.76.133-27 13a22.4 22.4 0 0 0-2.5 8 1700 1700 0 0 1-54-1.5 34.3 34.3 0 0 1-8-1.5q11.079-49.83 61-61.5 46.773-10.224 90 10 25.854 14.466 31.5 43.5.75 75.998.5 152h-62q.25-14.508-.5-29-16.095 28.343-48.5 32m44-95q1.983 4.902 2 11 1.124 38.627-37.5 40-29.688-.645-23-29 6.783-9.763 18.5-12.5a665 665 0 0 1 27-5q7.066-1.126 13-4.5" />
  <path style="opacity:.982" fill="#fefffe"
    d="M1069.5 654.5h-36q-75.8-11.553-85.5-88-7.017-50.434 23-91c23.869-24.628 53.04-35.462 87.5-32.5 52.88 5.548 82.72 34.715 89.5 87.5.5 11.328.67 22.662.5 34h-136c.09 26.759 13.43 40.759 40 42 14.58.792 25.75-4.875 33.5-17 .48-.948.65-1.948.5-3 20.7-.184 41.36.482 62 2-6.42 28.255-23.09 47.755-50 58.5-9.6 3.314-19.26 5.814-29 7.5m-23-164c23.38-.286 37.04 11.048 41 34q-37.485 1.5-75 1c2.58-20.242 13.91-31.909 34-35" />
  <path style="opacity:.985" fill="#fefffe"
    d="M475.5 445.5h66q-.673 64.037 1.5 128 9.608 32.189 42.5 23.5 17.576-6.849 21.5-25.5.75-62.999.5-126h66v206h-63q.25-19.506-.5-39-13.78 35.264-51.5 40.5-74.557 4.952-82.5-69.5a9518 9518 0 0 1-.5-138" />
</svg>